<?xml version="1.0" standalone="yes"?>
<svg xmlns="http://www.w3.org/2000/svg" width="2560" height="2560">
<path style="fill:#010101; stroke:none;" d="M0 0L0 2560L2560 2560L2560 0L0 0z"/>
<path style="fill:#ff9767; stroke:none;" d="M1331 510.424C1284.95 516.546 1240.14 530.792 1201 556.344C1158.8 583.889 1123.51 620.156 1098.43 664C1024.98 792.403 1057.32 961.186 1171 1054.92C1204.8 1082.79 1244.06 1101.98 1286 1114C1324.52 1125.04 1368.47 1126.92 1408 1121.72C1451.55 1115.99 1495.3 1100.63 1532 1076.33C1572.07 1049.8 1605.87 1016.28 1630.8 975C1713.29 838.39 1672.62 656.903 1544 564.579C1513.9 542.974 1478.91 527.148 1443 518.127C1407.96 509.323 1367.03 505.634 1331 510.424z"/>
<path style="fill:#ffffff; stroke:none;" d="M1401 510L1402 511L1401 510M1409 511L1410 512L1409 511z"/>
<path style="fill:#ff8281; stroke:none;" d="M1316 512L1317 513L1316 512M1421 513L1422 514L1421 513M1305 514L1306 515L1305 514M1426 514L1427 515L1426 514z"/>
<path style="fill:#ffffff; stroke:none;" d="M1436 516L1437 517L1436 516z"/>
<path style="fill:#ff8281; stroke:none;" d="M1440 517L1441 518L1440 517z"/>
<path style="fill:#ffffff; stroke:none;" d="M1444 518L1445 519L1444 518z"/>
<path style="fill:#ff8281; stroke:none;" d="M1451 520L1452 521L1451 520z"/>
<path style="fill:#ffffff; stroke:none;" d="M1458 522L1459 523L1458 522z"/>
<path style="fill:#ff8281; stroke:none;" d="M1461 523L1462 524L1461 523M1464 524L1465 525L1464 524M1467 525L1468 526L1467 525z"/>
<path style="fill:#ffffff; stroke:none;" d="M1470 526L1471 527L1470 526z"/>
<path style="fill:#ff8281; stroke:none;" d="M1472 527L1473 528L1472 527z"/>
<path style="fill:#ffffff; stroke:none;" d="M1478 529L1479 530L1478 529z"/>
<path style="fill:#ff8281; stroke:none;" d="M1480 530L1481 531L1480 530z"/>
<path style="fill:#ffffff; stroke:none;" d="M1483 531L1484 532L1483 531M1490 534L1491 535L1490 534z"/>
<path style="fill:#ff8281; stroke:none;" d="M1492 535L1493 536L1492 535M1494 536L1495 537L1494 536z"/>
<path style="fill:#ffffff; stroke:none;" d="M1231 539L1232 540L1231 539z"/>
<path style="fill:#ff8281; stroke:none;" d="M1229 540L1230 541L1229 540M1227 541L1228 542L1227 541M1512 545L1513 546L1512 545M1516 547L1517 548L1516 547z"/>
<path style="fill:#ffffff; stroke:none;" d="M1523 551L1524 552L1523 551M1528 554L1529 555L1528 554z"/>
<path style="fill:#ff8281; stroke:none;" d="M1531 556L1532 557L1531 556M1543 564L1544 565L1543 564z"/>
<path style="fill:#ffffff; stroke:none;" d="M1550 569L1551 570L1550 569z"/>
<path style="fill:#ff8281; stroke:none;" d="M1551 570L1552 571L1551 570z"/>
<path style="fill:#ffffff; stroke:none;" d="M1559 576L1560 577L1559 576z"/>
<path style="fill:#ff8281; stroke:none;" d="M1168 580L1169 581L1168 580z"/>
<path style="fill:#ffffff; stroke:none;" d="M1565 581L1566 582L1565 581z"/>
<path style="fill:#ff8281; stroke:none;" d="M1567 583L1568 584L1567 583z"/>
<path style="fill:#ffffff; stroke:none;" d="M1573 588L1574 589L1573 588z"/>
<path style="fill:#ff8281; stroke:none;" d="M1574 589L1575 590L1574 589M1576 591L1577 592L1576 591M1577 592L1578 593L1577 592M1590 605L1591 606L1590 605M1593 608L1594 609L1593 608z"/>
<path style="fill:#ffffff; stroke:none;" d="M1594 609L1595 610L1594 609z"/>
<path style="fill:#ff8281; stroke:none;" d="M1599 615L1600 616L1599 615z"/>
<path style="fill:#ffffff; stroke:none;" d="M1601 617L1602 618L1601 617z"/>
<path style="fill:#ff8281; stroke:none;" d="M1130 618L1131 619L1130 618z"/>
<path style="fill:#ffffff; stroke:none;" d="M1606 623L1607 624L1606 623M1613 632L1614 633L1613 632M1618 639L1619 640L1618 639z"/>
<path style="fill:#ff8281; stroke:none;" d="M1620 642L1621 643L1620 642M1624 648L1625 649L1624 648M1626 651L1627 652L1626 651z"/>
<path style="fill:#ffffff; stroke:none;" d="M1631 659L1632 660L1631 659M1635 666L1636 667L1635 666z"/>
<path style="fill:#ff8281; stroke:none;" d="M1636 668L1637 669L1636 668M1637 670L1638 671L1637 670M1638 672L1639 673L1638 672M1091 677L1092 678L1091 677M1090 679L1091 680L1090 679z"/>
<path style="fill:#ffffff; stroke:none;" d="M1089 681L1090 682L1089 681z"/>
<path style="fill:#ff8281; stroke:none;" d="M1645 686L1646 687L1645 686M1647 690L1648 691L1647 690z"/>
<path style="fill:#ffffff; stroke:none;" d="M1648 692L1649 693L1648 692z"/>
<path style="fill:#ff8281; stroke:none;" d="M1649 695L1650 696L1649 695M1650 697L1651 698L1650 697M1654 707L1655 708L1654 707M1655 710L1656 711L1655 710z"/>
<path style="fill:#ffffff; stroke:none;" d="M1657 715L1658 716L1657 715M1658 718L1659 719L1658 718M1659 721L1660 722L1659 721M1660 724L1661 725L1660 724z"/>
<path style="fill:#ff8281; stroke:none;" d="M1662 731L1663 732L1662 731z"/>
<path style="fill:#ffffff; stroke:none;" d="M1664 738L1665 739L1664 738M1665 742L1666 743L1665 742z"/>
<path style="fill:#ff8281; stroke:none;" d="M1666 747L1667 748L1666 747M1667 751L1668 752L1667 751M1064 755L1065 756L1064 755M1668 756L1669 757L1668 756z"/>
<path style="fill:#ffffff; stroke:none;" d="M1669 761L1670 762L1669 761z"/>
<path style="fill:#ff8281; stroke:none;" d="M1062 766L1063 767L1062 766M1670 767L1671 768L1670 767M1671 774L1672 775L1671 774z"/>
<path style="fill:#ff1212; stroke:none;" d="M1672 782L1673 783L1672 782z"/>
<path style="fill:#ff8281; stroke:none;" d="M1672 783L1672 786L1673 786L1672 783M1672 842L1673 843L1672 842M1672 847L1673 848L1672 847M1672 849L1673 850L1672 849z"/>
<path style="fill:#ffffff; stroke:none;" d="M1672 850L1673 851L1672 850z"/>
<path style="fill:#ff8281; stroke:none;" d="M1062 866L1063 867L1062 866M1669 871L1670 872L1669 871M1668 876L1669 877L1668 876M1064 877L1065 878L1064 877z"/>
<path style="fill:#ffffff; stroke:none;" d="M1665 890L1666 891L1665 890M1664 894L1665 895L1664 894z"/>
<path style="fill:#ff8281; stroke:none;" d="M1069 898L1070 899L1069 898M1071 905L1072 906L1071 905z"/>
<path style="fill:#ffffff; stroke:none;" d="M1660 908L1661 909L1660 908z"/>
<path style="fill:#ff8281; stroke:none;" d="M1659 911L1660 912L1659 911M1658 914L1659 915L1658 914z"/>
<path style="fill:#ffffff; stroke:none;" d="M1657 917L1658 918L1657 917z"/>
<path style="fill:#ff8281; stroke:none;" d="M1654 925L1655 926L1654 925M1650 935L1651 936L1650 935M1636 964L1637 965L1636 964z"/>
<path style="fill:#ffffff; stroke:none;" d="M1635 966L1636 967L1635 966z"/>
<path style="fill:#ff9767; stroke:none;" d="M871.089 968.046C862.472 972.316 855.142 985.834 848.845 993C830.348 1014.05 812.243 1035.52 794.246 1057C789.427 1062.75 771.207 1077.84 773.658 1085.99C774.886 1090.07 779.91 1093 783 1095.59C790.059 1101.52 796.984 1107.6 804 1113.58C830.725 1136.35 857.643 1158.96 884 1182.16C987.12 1272.9 1092.44 1361.34 1197 1450.42C1239.77 1486.86 1282.41 1523.47 1325 1560.13L1355 1585.87C1358.23 1588.65 1363.21 1594.84 1368 1592.92C1382.02 1587.29 1396.51 1569.11 1408 1559.27L1498 1482.27C1598.72 1396.06 1699.08 1309.4 1800 1223.42C1837.1 1191.82 1873.98 1159.96 1911 1128.27C1922 1118.85 1933.03 1109.46 1944 1100C1948.43 1096.18 1955.4 1092.08 1958.34 1086.96C1962.32 1080.03 1943.1 1063.11 1938.73 1058C1919.07 1035.03 1899.59 1011.91 1879.87 989C1875.44 983.854 1865.44 967.04 1858 967.427C1849.08 967.89 1836.55 983.66 1830 989.271L1756 1052.73C1661.61 1133.52 1567.39 1214.48 1473 1295.27C1446.98 1317.54 1420.95 1339.79 1395 1362.13L1375 1379.27C1372.6 1381.33 1369.45 1385.12 1366 1385.12C1358.41 1385.12 1345.62 1369.54 1340 1364.73C1315.96 1344.15 1291.98 1323.51 1268 1302.87C1175.16 1222.97 1082.06 1143.38 989 1063.73C959.978 1038.89 930.954 1014.05 902 989.13C896.355 984.272 879.061 964.096 871.089 968.046z"/>
<path style="fill:#ff8281; stroke:none;" d="M877 968L878 969L877 968z"/>
<path style="fill:#ffffff; stroke:none;" d="M1098 968L1099 969L1098 968M1854 968L1855 969L1854 968z"/>
<path style="fill:#ff8281; stroke:none;" d="M867 971L868 972L867 971M1864 971L1865 972L1864 971z"/>
<path style="fill:#ffffff; stroke:none;" d="M1631 973L1632 974L1631 973z"/>
<path style="fill:#ff8281; stroke:none;" d="M884 974L885 975L884 974z"/>
<path style="fill:#ffffff; stroke:none;" d="M1847 974L1848 975L1847 974z"/>
<path style="fill:#ff8281; stroke:none;" d="M861 978L862 979L861 978M1870 978L1871 979L1870 978z"/>
<path style="fill:#ffffff; stroke:none;" d="M891 980L892 981L891 980M1840 980L1841 981L1840 980z"/>
<path style="fill:#ff8281; stroke:none;" d="M1626 981L1627 982L1626 981M1839 981L1840 982L1839 981M1624 984L1625 985L1624 984z"/>
<path style="fill:#ffffff; stroke:none;" d="M855 985L856 986L855 985M1876 985L1877 986L1876 985M898 986L899 987L898 986M1833 986L1834 987L1833 986z"/>
<path style="fill:#ff8281; stroke:none;" d="M1622 987L1623 988L1622 987M1832 987L1833 988L1832 987M850 991L851 992L850 991z"/>
<path style="fill:#ffffff; stroke:none;" d="M905 992L906 993L905 992M1826 992L1827 993L1826 992M1618 993L1619 994L1618 993z"/>
<path style="fill:#ff8281; stroke:none;" d="M1825 993L1826 994L1825 993M1615 997L1616 998L1615 997z"/>
<path style="fill:#ffffff; stroke:none;" d="M912 998L913 999L912 998M1819 998L1820 999L1819 998z"/>
<path style="fill:#ff8281; stroke:none;" d="M1818 999L1819 1000L1818 999z"/>
<path style="fill:#ffffff; stroke:none;" d="M919 1004L920 1005L919 1004M1812 1004L1813 1005L1812 1004z"/>
<path style="fill:#ff8281; stroke:none;" d="M838 1005L839 1006L838 1005M1609 1005L1610 1006L1609 1005M1811 1005L1812 1006L1811 1005M1893 1005L1894 1006L1893 1005z"/>
<path style="fill:#ffffff; stroke:none;" d="M926 1010L927 1011L926 1010z"/>
<path style="fill:#ff8281; stroke:none;" d="M1605 1010L1606 1011L1605 1010M1804 1011L1805 1012L1804 1011M832 1012L833 1013L832 1012M1899 1012L1900 1013L1899 1012z"/>
<path style="fill:#ffffff; stroke:none;" d="M1601 1015L1602 1016L1601 1015M933 1016L934 1017L933 1016z"/>
<path style="fill:#ff8281; stroke:none;" d="M1600 1016L1601 1017L1600 1016M1797 1017L1798 1018L1797 1017z"/>
<path style="fill:#ffffff; stroke:none;" d="M826 1019L827 1020L826 1019M1905 1019L1906 1020L1905 1019M940 1022L941 1023L940 1022z"/>
<path style="fill:#ff8281; stroke:none;" d="M1137 1022L1138 1023L1137 1022z"/>
<path style="fill:#ffffff; stroke:none;" d="M1594 1023L1595 1024L1594 1023z"/>
<path style="fill:#ff8281; stroke:none;" d="M1790 1023L1791 1024L1790 1023M1593 1024L1594 1025L1593 1024M821 1025L822 1026L821 1025M1592 1025L1593 1026L1592 1025z"/>
<path style="fill:#ffffff; stroke:none;" d="M947 1028L948 1029L947 1028z"/>
<path style="fill:#ff8281; stroke:none;" d="M1783 1029L1784 1030L1783 1029z"/>
<path style="fill:#ffffff; stroke:none;" d="M954 1034L955 1035L954 1034z"/>
<path style="fill:#ff8281; stroke:none;" d="M1776 1035L1777 1036L1776 1035M809 1039L810 1040L809 1039M1922 1039L1923 1040L1922 1039z"/>
<path style="fill:#ffffff; stroke:none;" d="M961 1040L962 1041L961 1040z"/>
<path style="fill:#ff8281; stroke:none;" d="M1769 1041L1770 1042L1769 1041M1575 1042L1576 1043L1575 1042M1574 1043L1575 1044L1574 1043z"/>
<path style="fill:#ffffff; stroke:none;" d="M1573 1044L1574 1045L1573 1044M1160 1045L1161 1046L1160 1045z"/>
<path style="fill:#ff8281; stroke:none;" d="M803 1046L804 1047L803 1046M1928 1046L1929 1047L1928 1046M1762 1047L1763 1048L1762 1047M1566 1050L1567 1051L1566 1050z"/>
<path style="fill:#ffffff; stroke:none;" d="M1565 1051L1566 1052L1565 1051M797 1053L798 1054L797 1053z"/>
<path style="fill:#ff8281; stroke:none;" d="M1755 1053L1756 1054L1755 1053z"/>
<path style="fill:#ffffff; stroke:none;" d="M1934 1053L1935 1054L1934 1053z"/>
<path style="fill:#ff8281; stroke:none;" d="M1560 1055L1561 1056L1560 1055M792 1059L793 1060L792 1059M1555 1059L1556 1060L1555 1059M1748 1059L1749 1060L1748 1059M1178 1060L1179 1061L1178 1060M1547 1065L1548 1066L1547 1065M1741 1065L1742 1066L1741 1065z"/>
<path style="fill:#ffffff; stroke:none;" d="M1543 1068L1544 1069L1543 1068z"/>
<path style="fill:#ff8281; stroke:none;" d="M1734 1071L1735 1072L1734 1071M1537 1072L1538 1073L1537 1072M780 1073L781 1074L780 1073M1951 1073L1952 1074L1951 1073M1534 1074L1535 1075L1534 1074M1531 1076L1532 1077L1531 1076M1727 1077L1728 1078L1727 1077M1204 1078L1205 1079L1204 1078M774 1080L775 1081L774 1080M1957 1080L1958 1081L1957 1080z"/>
<path style="fill:#ffffff; stroke:none;" d="M1523 1081L1524 1082L1523 1081z"/>
<path style="fill:#ff8281; stroke:none;" d="M1720 1083L1721 1084L1720 1083z"/>
<path style="fill:#ffffff; stroke:none;" d="M1516 1085L1517 1086L1516 1085z"/>
<path style="fill:#ff8281; stroke:none;" d="M1514 1086L1515 1087L1514 1086M1713 1089L1714 1090L1713 1089M1706 1095L1707 1096L1706 1095M784 1096L785 1097L784 1096M1485 1100L1486 1101L1485 1100M1699 1101L1700 1102L1699 1101M791 1102L792 1103L791 1102M1475 1104L1476 1105L1475 1104z"/>
<path style="fill:#ffffff; stroke:none;" d="M1467 1107L1468 1108L1467 1107z"/>
<path style="fill:#ff8281; stroke:none;" d="M798 1108L799 1109L798 1108M1464 1108L1465 1109L1464 1108M1461 1109L1462 1110L1461 1109z"/>
<path style="fill:#ffffff; stroke:none;" d="M1458 1110L1459 1111L1458 1110z"/>
<path style="fill:#ff8281; stroke:none;" d="M805 1114L806 1115L805 1114z"/>
<path style="fill:#ffffff; stroke:none;" d="M1444 1114L1445 1115L1444 1114M1440 1115L1441 1116L1440 1115z"/>
<path style="fill:#ff8281; stroke:none;" d="M1296 1116L1297 1117L1296 1116M1426 1118L1427 1119L1426 1118M1421 1119L1422 1120L1421 1119M812 1120L813 1121L812 1120z"/>
<path style="fill:#ffffff; stroke:none;" d="M1323 1121L1324 1122L1323 1121z"/>
<path style="fill:#ff8281; stroke:none;" d="M1331 1122L1332 1123L1331 1122z"/>
<path style="fill:#ff1212; stroke:none;" d="M1344 1123L1345 1124L1344 1123z"/>
<path style="fill:#ffffff; stroke:none;" d="M1345.67 1123.33L1346.33 1123.67L1345.67 1123.33z"/>
<path style="fill:#ff8281; stroke:none;" d="M1347 1123L1347 1124L1352 1124L1347 1123M1360 1123L1360 1124L1373 1124L1360 1123M1380 1123L1380 1124L1385 1124L1380 1123z"/>
<path style="fill:#ffffff; stroke:none;" d="M1385.67 1123.33L1386.33 1123.67L1385.67 1123.33z"/>
<path style="fill:#ff1212; stroke:none;" d="M1387.67 1123.33L1388.33 1123.67L1387.67 1123.33z"/>
<path style="fill:#ff8281; stroke:none;" d="M819 1126L820 1127L819 1126M826 1132L827 1133L826 1132M833 1138L834 1139L833 1138M840 1144L841 1145L840 1144M847 1150L848 1151L847 1150M854 1156L855 1157L854 1156M861 1162L862 1163L861 1162M868 1168L869 1169L868 1168M875 1174L876 1175L875 1174M882 1180L883 1181L882 1180M1137 1191L1138 1192L1137 1191M1144 1197L1145 1198L1144 1197M1151 1203L1152 1204L1151 1203M1158 1209L1159 1210L1158 1209M1573 1209L1574 1210L1573 1209M1165 1215L1166 1216L1165 1215M1566 1215L1567 1216L1566 1215M1172 1221L1173 1222L1172 1221M1559 1221L1560 1222L1559 1221M1179 1227L1180 1228L1179 1227M1552 1227L1553 1228L1552 1227M1186 1233L1187 1234L1186 1233M1545 1233L1546 1234L1545 1233M1193 1239L1194 1240L1193 1239M1538 1239L1539 1240L1538 1239M1200 1245L1201 1246L1200 1245M1531 1245L1532 1246L1531 1245M1207 1251L1208 1252L1207 1251M1524 1251L1525 1252L1524 1251M1214 1257L1215 1258L1214 1257M1517 1257L1518 1258L1517 1257M1510 1263L1511 1264L1510 1263M1503 1269L1504 1270L1503 1269M1496 1275L1497 1276L1496 1275M1489 1281L1490 1282L1489 1281M1482 1287L1483 1288L1482 1287M1475 1293L1476 1294L1475 1293M1468 1299L1469 1300L1468 1299M1461 1305L1462 1306L1461 1305M1454 1311L1455 1312L1454 1311M1447 1317L1448 1318L1447 1317M1440 1323L1441 1324L1440 1323M1298 1329L1299 1330L1298 1329z"/>
<path style="fill:#ffffff; stroke:none;" d="M1433 1329L1434 1330L1433 1329z"/>
<path style="fill:#ff8281; stroke:none;" d="M1305 1335L1306 1336L1305 1335z"/>
<path style="fill:#ffffff; stroke:none;" d="M1426 1335L1427 1336L1426 1335z"/>
<path style="fill:#ff8281; stroke:none;" d="M1312 1341L1313 1342L1312 1341z"/>
<path style="fill:#ffffff; stroke:none;" d="M1419 1341L1420 1342L1419 1341z"/>
<path style="fill:#ff8281; stroke:none;" d="M1319 1347L1320 1348L1319 1347z"/>
<path style="fill:#ffffff; stroke:none;" d="M1412 1347L1413 1348L1412 1347z"/>
<path style="fill:#ff8281; stroke:none;" d="M1326 1353L1327 1354L1326 1353z"/>
<path style="fill:#ffffff; stroke:none;" d="M1405 1353L1406 1354L1405 1353z"/>
<path style="fill:#ff8281; stroke:none;" d="M1333 1359L1334 1360L1333 1359z"/>
<path style="fill:#ffffff; stroke:none;" d="M1398 1359L1399 1360L1398 1359z"/>
<path style="fill:#ff8281; stroke:none;" d="M1340 1365L1341 1366L1340 1365z"/>
<path style="fill:#ffffff; stroke:none;" d="M1391 1365L1392 1366L1391 1365z"/>
<path style="fill:#ff8281; stroke:none;" d="M1099 1366L1100 1367L1099 1366M1347 1371L1348 1372L1347 1371z"/>
<path style="fill:#ffffff; stroke:none;" d="M1384 1371L1385 1372L1384 1371z"/>
<path style="fill:#ff8281; stroke:none;" d="M1106 1372L1107 1373L1106 1372M1354 1377L1355 1378L1354 1377z"/>
<path style="fill:#ffffff; stroke:none;" d="M1377 1377L1378 1378L1377 1377z"/>
<path style="fill:#ff8281; stroke:none;" d="M1113 1378L1114 1379L1113 1378M1618 1378L1619 1379L1618 1378M1361 1383L1362 1384L1361 1383z"/>
<path style="fill:#ffffff; stroke:none;" d="M1370 1383L1371 1384L1370 1383z"/>
<path style="fill:#ff8281; stroke:none;" d="M1120 1384L1121 1385L1120 1384M1611 1384L1612 1385L1611 1384M1127 1390L1128 1391L1127 1390M1604 1390L1605 1391L1604 1390M1134 1396L1135 1397L1134 1396M1597 1396L1598 1397L1597 1396M1141 1402L1142 1403L1141 1402M1590 1402L1591 1403L1590 1402M1148 1408L1149 1409L1148 1408M1583 1408L1584 1409L1583 1408M1155 1414L1156 1415L1155 1414M1576 1414L1577 1415L1576 1414M1162 1420L1163 1421L1162 1420M1569 1420L1570 1421L1569 1420M1169 1426L1170 1427L1169 1426M1562 1426L1563 1427L1562 1426M1176 1432L1177 1433L1176 1432M1555 1432L1556 1433L1555 1432M1183 1438L1184 1439L1183 1438M1548 1438L1549 1439L1548 1438M1190 1444L1191 1445L1190 1444M1541 1444L1542 1445L1541 1444M1197 1450L1198 1451L1197 1450M1534 1450L1535 1451L1534 1450M1204 1456L1205 1457L1204 1456M1527 1456L1528 1457L1527 1456M1211 1462L1212 1463L1211 1462M1520 1462L1521 1463L1520 1462M1218 1468L1219 1469L1218 1468M1513 1468L1514 1469L1513 1468M1225 1474L1226 1475L1225 1474M1232 1480L1233 1481L1232 1480M1239 1486L1240 1487L1239 1486M1246 1492L1247 1493L1246 1492M1253 1498L1254 1499L1253 1498M1260 1504L1261 1505L1260 1504M1267 1510L1268 1511L1267 1510M1274 1516L1275 1517L1274 1516M1281 1522L1282 1523L1281 1522M1288 1528L1289 1529L1288 1528M1295 1534L1296 1535L1295 1534M1302 1540L1303 1541L1302 1540z"/>
<path style="fill:#ffffff; stroke:none;" d="M1309 1546L1310 1547L1309 1546M1316 1552L1317 1553L1316 1552z"/>
<path style="fill:#ff8281; stroke:none;" d="M1415 1552L1416 1553L1415 1552z"/>
<path style="fill:#ffffff; stroke:none;" d="M1323 1558L1324 1559L1323 1558z"/>
<path style="fill:#ff8281; stroke:none;" d="M1408 1558L1409 1559L1408 1558z"/>
<path style="fill:#ffffff; stroke:none;" d="M1330 1564L1331 1565L1330 1564M1401 1564L1402 1565L1401 1564M1337 1570L1338 1571L1337 1570M1394 1570L1395 1571L1394 1570M1344 1576L1345 1577L1344 1576M1387 1576L1388 1577L1387 1576M1380 1582L1381 1583L1380 1582z"/>
</svg>
