<svg height="650pt" preserveAspectRatio="xMidYMid meet" viewBox="0 0 649 650" width="649pt" xmlns="http://www.w3.org/2000/svg"><g transform="matrix(.1 0 0 -.1 0 650)"><path d="m3193 4763c15-2 37-2 50 0 12 2 0 4-28 4-27 0-38-2-22-4z"/><path d="m3430 4706c0-2 8-10 18-17 15-13 16-12 3 4s-21 21-21 13z"/><path d="m2959 4673c-13-16-12-17 4-4s21 21 13 21c-2 0-10-8-17-17z"/><path d="m3490 4656c0-2 8-10 18-17 15-13 16-12 3 4s-21 21-21 13z"/><path d="m2899 4613c-13-16-12-17 4-4s21 21 13 21c-2 0-10-8-17-17z"/><path d="m3612 4415c0-16 2-22 5-12 2 9 2 23 0 30-3 6-5-1-5-18z"/><path d="m2812 4370c0-19 2-27 5-17 2 9 2 25 0 35-3 9-5 1-5-18z"/><path d="m3612 4320c0-14 2-19 5-12 2 6 2 18 0 25-3 6-5 1-5-13z"/><path d="m2725 3910c126-126 232-230 235-230s-99 104-225 230c-126 127-232 230-235 230s99-103 225-230z"/><path d="m2895 4120c10-11 20-20 23-20s-3 9-13 20-20 20-23 20 3-9 13-20z"/><path d="m4060 4027 115-117-210-213-210-212 215 212 215 213-120 117-120 118z"/><path d="m3499 4083c-13-16-12-17 4-4 9 7 17 15 17 17 0 8-8 3-21-13z"/><path d="m2950 4066c0-2 8-10 18-17 15-13 16-12 3 4s-21 21-21 13z"/><path d="m3188 3963c18-2 45-2 60 0s0 4-33 4-45-2-27-4z"/><path d="m2750 3435c261-261 477-475 480-475s-209 214-470 475-477 475-480 475 209-214 470-475z"/><path d="m2074 2220c0-69 1-97 3-62 2 34 2 90 0 125-2 34-3 6-3-63z"/><path d="m2244 2220c0-69 1-97 3-62 2 34 2 90 0 125-2 34-3 6-3-63z"/><path d="m3724 2145c0-110 2-156 3-103 2 53 2 143 0 200-1 57-3 13-3-97z"/><path d="m4153 2300c0-25 2-35 4-22 2 12 2 32 0 45-2 12-4 2-4-23z"/><path d="m3013 2273c9-2 23-2 30 0 6 3-1 5-18 5-16 0-22-2-12-5z"/><path d="m3383 2273c9-2 23-2 30 0 6 3-1 5-18 5-16 0-22-2-12-5z"/><path d="m3963 2273c9-2 23-2 30 0 6 3-1 5-18 5-16 0-22-2-12-5z"/><path d="m4374 2105c0-88 2-123 3-77 2 46 2 118 0 160-1 42-3 5-3-83z"/><path d="m2870 2166c0-2 8-10 18-17 15-13 16-12 3 4s-21 21-21 13z"/><path d="m3820 2166c0-2 8-10 18-17 15-13 16-12 3 4s-21 21-21 13z"/><path d="m3140 2146c0-2 8-10 18-17 15-13 16-12 3 4s-21 21-21 13z"/><path d="m4090 2146c0-2 8-10 18-17 15-13 16-12 3 4s-21 21-21 13z"/><path d="m3552 2060c0-14 2-19 5-12 2 6 2 18 0 25-3 6-5 1-5-13z"/><path d="m3003 2013c9-2 23-2 30 0 6 3-1 5-18 5-16 0-22-2-12-5z"/><path d="m3373 2013c9-2 23-2 30 0 6 3-1 5-18 5-16 0-22-2-12-5z"/><path d="m3953 2013c9-2 23-2 30 0 6 3-1 5-18 5-16 0-22-2-12-5z"/><path d="m2010 1996c0-2 8-10 18-17 15-13 16-12 3 4s-21 21-21 13z"/><path d="m2289 1983c-13-16-12-17 4-4 9 7 17 15 17 17 0 8-8 3-21-13z"/><path d="m3519 1983c-13-16-12-17 4-4s21 21 13 21c-2 0-10-8-17-17z"/></g></svg>